<?xml version="1.0" encoding="UTF-8"?>
<!DOCTYPE svg PUBLIC "-//W3C//DTD SVG 1.1//EN" "http://www.w3.org/Graphics/SVG/1.1/DTD/svg11.dtd">
<svg xmlns="http://www.w3.org/2000/svg" version="1.1" width="100px" height="97px" style="shape-rendering:geometricPrecision; text-rendering:geometricPrecision; image-rendering:optimizeQuality; fill-rule:evenodd; clip-rule:evenodd" xmlns:xlink="http://www.w3.org/1999/xlink">
<g><path style="opacity:1" fill="#fefdfe" d="M -0.5,-0.5 C 32.8333,-0.5 66.1667,-0.5 99.5,-0.5C 99.5,31.8333 99.5,64.1667 99.5,96.5C 66.1667,96.5 32.8333,96.5 -0.5,96.5C -0.5,64.1667 -0.5,31.8333 -0.5,-0.5 Z"/></g>
<g><path style="opacity:1" fill="#8e55ff" d="M 21.5,6.5 C 36.3277,5.33892 51.3277,5.17226 66.5,6C 80.2213,8.71764 88.0546,16.8843 90,30.5C 85.1445,25.6494 79.3111,22.4827 72.5,21C 59.4703,20.0667 46.4703,19.0667 33.5,18C 28.3111,15.3093 24.3111,11.4759 21.5,6.5 Z"/></g>
<g><path style="opacity:1" fill="#ff67c4" d="M 34.5,23.5 C 44.1667,23.5 53.8333,23.5 63.5,23.5C 63.5,33.8333 63.5,44.1667 63.5,54.5C 62.1667,54.5 60.8333,54.5 59.5,54.5C 53.4518,52.7852 50.4518,48.7852 50.5,42.5C 50.5,40.5 50.5,38.5 50.5,36.5C 45.3054,36.1795 40.3054,36.5128 35.5,37.5C 28.7289,38.7621 24.2289,42.7621 22,49.5C 20.6212,56.5016 21.7879,63.0016 25.5,69C 10.1859,65.894 5.01922,56.7273 10,41.5C 14.724,30.7294 22.8906,24.7294 34.5,23.5 Z"/></g>
<g><path style="opacity:1" fill="#ff8ed4" d="M 34.5,23.5 C 44.3194,22.506 54.3194,22.1726 64.5,22.5C 64.5,33.5 64.5,44.5 64.5,55.5C 62.5853,55.7845 60.9187,55.4511 59.5,54.5C 60.8333,54.5 62.1667,54.5 63.5,54.5C 63.5,44.1667 63.5,33.8333 63.5,23.5C 53.8333,23.5 44.1667,23.5 34.5,23.5 Z"/></g>
<g><path style="opacity:1" fill="#8d54ff" d="M 35.5,71.5 C 35.5,60.8333 35.5,50.1667 35.5,39.5C 36.8333,39.5 38.1667,39.5 39.5,39.5C 47.6515,42.7121 50.6515,48.7121 48.5,57.5C 69.4991,60.97 78.9991,52.3033 77,31.5C 76.0857,29.3359 74.919,27.3359 73.5,25.5C 82.238,26.1629 88.0714,30.8296 91,39.5C 90.4892,57.0303 81.6559,67.5303 64.5,71C 54.8391,71.4998 45.1724,71.6665 35.5,71.5 Z"/></g>
<g><path style="opacity:1" fill="#ffcaea" d="M 35.5,37.5 C 40.3054,36.5128 45.3054,36.1795 50.5,36.5C 50.5,38.5 50.5,40.5 50.5,42.5C 49.5489,41.0813 49.2155,39.4147 49.5,37.5C 44.8333,37.5 40.1667,37.5 35.5,37.5 Z"/></g>
<g><path style="opacity:1" fill="#ac83ff" d="M 39.5,39.5 C 38.1667,39.5 36.8333,39.5 35.5,39.5C 35.5,50.1667 35.5,60.8333 35.5,71.5C 34.5054,60.6794 34.1721,49.6794 34.5,38.5C 36.4147,38.2155 38.0813,38.5489 39.5,39.5 Z"/></g>
<g><path style="opacity:1" fill="#ff6cc6" d="M 8.5,63.5 C 14.367,69.1002 21.367,72.6002 29.5,74C 39.8333,74.3333 50.1667,74.6667 60.5,75C 68.2731,76.2694 73.9397,80.4361 77.5,87.5C 69.8333,87.8333 62.1667,88.1667 54.5,88.5C 45.4423,88.6082 36.4423,88.1082 27.5,87C 16.5284,82.8667 10.1951,75.0334 8.5,63.5 Z"/></g>
</svg>
