<?xml version="1.0" encoding="UTF-8"?>
<!DOCTYPE svg PUBLIC "-//W3C//DTD SVG 1.1//EN" "http://www.w3.org/Graphics/SVG/1.1/DTD/svg11.dtd">
<svg xmlns="http://www.w3.org/2000/svg" version="1.1" width="383px" height="97px" style="shape-rendering:geometricPrecision; text-rendering:geometricPrecision; image-rendering:optimizeQuality; fill-rule:evenodd; clip-rule:evenodd" xmlns:xlink="http://www.w3.org/1999/xlink">
<g><path style="opacity:1" fill="#fdfdfd" d="M -0.5,-0.5 C 127.167,-0.5 254.833,-0.5 382.5,-0.5C 382.5,31.8333 382.5,64.1667 382.5,96.5C 254.833,96.5 127.167,96.5 -0.5,96.5C -0.5,64.1667 -0.5,31.8333 -0.5,-0.5 Z"/></g>
<g><path style="opacity:1" fill="#8e55ff" d="M 21.5,6.5 C 36.3277,5.33892 51.3277,5.17226 66.5,6C 80.2213,8.71764 88.0546,16.8843 90,30.5C 85.1445,25.6494 79.3111,22.4827 72.5,21C 59.4703,20.0667 46.4703,19.0667 33.5,18C 28.3111,15.3093 24.3111,11.4759 21.5,6.5 Z"/></g>
<g><path style="opacity:1" fill="#ff67c4" d="M 34.5,23.5 C 44.1667,23.5 53.8333,23.5 63.5,23.5C 63.5,33.8333 63.5,44.1667 63.5,54.5C 62.1667,54.5 60.8333,54.5 59.5,54.5C 53.4518,52.7852 50.4518,48.7852 50.5,42.5C 50.5,40.5 50.5,38.5 50.5,36.5C 45.3054,36.1795 40.3054,36.5128 35.5,37.5C 28.7289,38.7621 24.2289,42.7621 22,49.5C 20.6212,56.5016 21.7879,63.0016 25.5,69C 10.1859,65.894 5.01922,56.7273 10,41.5C 14.724,30.7294 22.8906,24.7294 34.5,23.5 Z"/></g>
<g><path style="opacity:1" fill="#ff8ed4" d="M 34.5,23.5 C 44.3194,22.506 54.3194,22.1726 64.5,22.5C 64.5,33.5 64.5,44.5 64.5,55.5C 62.5853,55.7845 60.9187,55.4511 59.5,54.5C 60.8333,54.5 62.1667,54.5 63.5,54.5C 63.5,44.1667 63.5,33.8333 63.5,23.5C 53.8333,23.5 44.1667,23.5 34.5,23.5 Z"/></g>
<g><path style="opacity:1" fill="#0c0c0c" d="M 207.5,28.5 C 206.2,31.0241 206.2,33.6908 207.5,36.5C 208.107,36.3764 208.44,36.0431 208.5,35.5C 213.667,32.2232 218.167,32.8898 222,37.5C 222.228,44.4993 222.061,51.4993 221.5,58.5C 218.5,59.1667 215.5,59.8333 212.5,60.5C 213.222,53.8414 213.389,47.1747 213,40.5C 209.982,39.4472 207.648,40.4472 206,43.5C 205.252,48.4814 204.752,53.4814 204.5,58.5C 201.5,59.1667 198.5,59.8333 195.5,60.5C 196.307,48.8368 197.141,37.1701 198,25.5C 201.049,24.3899 204.216,23.7233 207.5,23.5C 207.5,25.1667 207.5,26.8333 207.5,28.5 Z"/></g>
<g><path style="opacity:1" fill="#0f0f0f" d="M 160.5,24.5 C 161.693,24.9704 162.36,25.9704 162.5,27.5C 161.252,37.463 160.419,47.463 160,57.5C 156.995,59.0015 153.829,60.0015 150.5,60.5C 151.333,49.1721 152.166,37.8387 153,26.5C 155.607,25.8767 158.107,25.21 160.5,24.5 Z"/></g>
<g><path style="opacity:1" fill="#8d54ff" d="M 35.5,71.5 C 35.5,60.8333 35.5,50.1667 35.5,39.5C 36.8333,39.5 38.1667,39.5 39.5,39.5C 47.6515,42.7121 50.6515,48.7121 48.5,57.5C 69.4991,60.97 78.9991,52.3033 77,31.5C 76.0857,29.3359 74.919,27.3359 73.5,25.5C 82.238,26.1629 88.0714,30.8296 91,39.5C 90.4892,57.0303 81.6559,67.5303 64.5,71C 54.8391,71.4998 45.1724,71.6665 35.5,71.5 Z"/></g>
<g><path style="opacity:1" fill="#0a0a0a" d="M 132.5,25.5 C 134.467,25.2606 136.301,25.5939 138,26.5C 141.653,36.779 145.153,47.1124 148.5,57.5C 145.407,59.3089 142.074,60.3089 138.5,60.5C 138.167,58.5 137.833,56.5 137.5,54.5C 133.833,54.5 130.167,54.5 126.5,54.5C 125.578,61.2524 122.578,62.2524 117.5,57.5C 118.167,56.1667 118.833,54.8333 119.5,53.5C 118.253,51.677 117.586,49.677 117.5,47.5C 119.167,47.5 120.833,47.5 122.5,47.5C 124.359,41.0899 126.526,34.7566 129,28.5C 130.145,27.3636 131.312,26.3636 132.5,25.5 Z"/></g>
<g><path style="opacity:1" fill="#090909" d="M 256.5,25.5 C 259.167,25.5 261.833,25.5 264.5,25.5C 265.68,31.8974 267.18,38.2308 269,44.5C 272.408,39.9724 273.408,34.9724 272,29.5C 274.719,28.5562 277.552,28.2229 280.5,28.5C 280.754,32.9387 281.588,37.272 283,41.5C 284.864,36.9093 286.53,32.2426 288,27.5C 290.461,26.7819 292.961,26.1153 295.5,25.5C 295.833,25.8333 296.167,26.1667 296.5,26.5C 292.503,36.6586 289.003,46.992 286,57.5C 284.263,59.6246 282.096,60.458 279.5,60C 278.686,55.5728 277.186,51.4061 275,47.5C 273.292,52.4121 270.458,56.5788 266.5,60C 265.552,60.4828 264.552,60.6495 263.5,60.5C 261.124,49.6639 258.124,38.9972 254.5,28.5C 255.193,27.4822 255.859,26.4822 256.5,25.5 Z"/></g>
<g><path style="opacity:1" fill="#0c0c0c" d="M 171.5,33.5 C 173.821,33.2289 175.821,33.8955 177.5,35.5C 188.933,32.0898 193.766,36.4231 192,48.5C 189.925,58.7813 184.092,62.1146 174.5,58.5C 173.833,61.8333 173.167,65.1667 172.5,68.5C 169.904,69.4822 167.238,70.1489 164.5,70.5C 164.726,58.7934 165.559,47.1267 167,35.5C 168.622,34.9011 170.122,34.2344 171.5,33.5 Z"/></g>
<g><path style="opacity:1" fill="#0b0b0b" d="M 234.5,33.5 C 237.39,33.278 240.057,33.9447 242.5,35.5C 245.193,33.7298 248.193,33.0632 251.5,33.5C 250.871,39.6624 250.204,45.8291 249.5,52C 249.544,53.7642 249.878,55.4309 250.5,57C 248.664,58.419 246.664,59.5857 244.5,60.5C 243.201,59.91 242.368,58.91 242,57.5C 235.914,62.0961 230.914,61.0961 227,54.5C 223.859,45.4543 226.359,38.4543 234.5,33.5 Z"/></g>
<g><path style="opacity:1" fill="#0b0b0b" d="M 305.5,33.5 C 308.39,33.278 311.057,33.9447 313.5,35.5C 316.193,33.7298 319.193,33.0632 322.5,33.5C 321.871,39.6624 321.204,45.8291 320.5,52C 320.544,53.7642 320.878,55.4309 321.5,57C 319.664,58.419 317.664,59.5857 315.5,60.5C 314.201,59.91 313.368,58.91 313,57.5C 306.914,62.0961 301.914,61.0961 298,54.5C 294.859,45.4543 297.359,38.4543 305.5,33.5 Z"/></g>
<g><path style="opacity:1" fill="#0a0a0a" d="M 331.5,33.5 C 332.496,33.4142 333.329,33.7476 334,34.5C 334.364,39.3216 335.364,43.9883 337,48.5C 338.642,43.9028 340.476,39.4028 342.5,35C 345.157,34.8253 347.824,34.9919 350.5,35.5C 347.627,42.9176 344.46,50.2509 341,57.5C 337.995,59.0015 334.829,60.0015 331.5,60.5C 329.658,52.1315 327.658,43.7982 325.5,35.5C 327.898,35.7406 329.898,35.0739 331.5,33.5 Z"/></g>
<g><path style="opacity:1" fill="#0c0c0c" d="M 361.5,33.5 C 369.866,32.7159 374.366,36.3826 375,44.5C 374.535,45.9308 373.701,47.0975 372.5,48C 368.71,49.8105 364.71,50.9771 360.5,51.5C 361.412,53.7431 363.078,54.7431 365.5,54.5C 367.95,54.2389 370.283,53.5723 372.5,52.5C 373.938,54.9977 373.604,57.1644 371.5,59C 357.868,62.6957 351.368,57.5291 352,43.5C 354.022,38.98 357.189,35.6467 361.5,33.5 Z"/></g>
<g><path style="opacity:1" fill="#868686" d="M 207.5,28.5 C 207.198,31.0593 207.532,33.3926 208.5,35.5C 208.44,36.0431 208.107,36.3764 207.5,36.5C 206.2,33.6908 206.2,31.0241 207.5,28.5 Z"/></g>
<g><path style="opacity:1" fill="#ffcaea" d="M 35.5,37.5 C 40.3054,36.5128 45.3054,36.1795 50.5,36.5C 50.5,38.5 50.5,40.5 50.5,42.5C 49.5489,41.0813 49.2155,39.4147 49.5,37.5C 44.8333,37.5 40.1667,37.5 35.5,37.5 Z"/></g>
<g><path style="opacity:1" fill="#ac83ff" d="M 39.5,39.5 C 38.1667,39.5 36.8333,39.5 35.5,39.5C 35.5,50.1667 35.5,60.8333 35.5,71.5C 34.5054,60.6794 34.1721,49.6794 34.5,38.5C 36.4147,38.2155 38.0813,38.5489 39.5,39.5 Z"/></g>
<g><path style="opacity:1" fill="#e7e7e7" d="M 132.5,37.5 C 134.175,40.5072 134.841,43.8405 134.5,47.5C 133.167,47.5 131.833,47.5 130.5,47.5C 130.959,44.1226 131.626,40.7893 132.5,37.5 Z"/></g>
<g><path style="opacity:1" fill="#f2f2f2" d="M 177.5,40.5 C 182.239,39.4071 184.239,41.2404 183.5,46C 183.979,50.2223 182.312,53.0556 178.5,54.5C 175.106,53.7155 173.773,51.5489 174.5,48C 174.11,44.8764 175.11,42.3764 177.5,40.5 Z"/></g>
<g><path style="opacity:1" fill="#e7e7e7" d="M 237.5,39.5 C 238.93,39.4208 240.264,39.7542 241.5,40.5C 242.66,44.4589 242.827,48.4589 242,52.5C 236.702,55.7459 234.202,54.0792 234.5,47.5C 234.4,44.3764 235.4,41.7097 237.5,39.5 Z"/></g>
<g><path style="opacity:1" fill="#e7e7e7" d="M 308.5,39.5 C 309.93,39.4208 311.264,39.7542 312.5,40.5C 313.66,44.4589 313.827,48.4589 313,52.5C 307.702,55.7459 305.202,54.0792 305.5,47.5C 305.4,44.3764 306.4,41.7097 308.5,39.5 Z"/></g>
<g><path style="opacity:1" fill="#e0e0e0" d="M 363.5,39.5 C 365.681,39.2837 367.347,40.117 368.5,42C 366.01,44.6264 363.343,45.2931 360.5,44C 361.315,42.3566 362.315,40.8566 363.5,39.5 Z"/></g>
<g><path style="opacity:1" fill="#ff6cc6" d="M 8.5,63.5 C 14.367,69.1002 21.367,72.6002 29.5,74C 39.8333,74.3333 50.1667,74.6667 60.5,75C 68.2731,76.2694 73.9397,80.4361 77.5,87.5C 69.8333,87.8333 62.1667,88.1667 54.5,88.5C 45.4423,88.6082 36.4423,88.1082 27.5,87C 16.5284,82.8667 10.1951,75.0334 8.5,63.5 Z"/></g>
</svg>
